<?xml version="1.0" encoding="UTF-8"?>
<svg xmlns="http://www.w3.org/2000/svg" id="Layer_1" data-name="Layer 1" viewBox="0 0 24 24">
  <path d="M16.277,18h-4.369c-.258,1.594-1.182,3.037-2.525,3.956-1.006,.688-2.175,1.044-3.381,1.044-.425,0-.854-.044-1.283-.133-2.308-.481-4.159-2.363-4.606-4.684-.582-3.024,1.175-5.994,4.086-6.908,.526-.165,1.088,.127,1.254,.654,.166,.527-.127,1.088-.654,1.254-1.942,.609-3.112,2.597-2.722,4.622,.296,1.538,1.522,2.785,3.05,3.104,1.108,.23,2.218,.016,3.126-.604,.896-.613,1.513-1.575,1.69-2.639,.161-.965,.987-1.666,1.964-1.666h4.369c.346-.595,.984-1,1.723-1,1.105,0,2,.895,2,2s-.895,2-2,2c-.738,0-1.376-.405-1.723-1Zm-8.186-6.477l-2.127,3.48c-1.088,.02-1.964,.904-1.964,1.996,0,1.105,.895,2,2,2s2-.895,2-2c0-.375-.109-.721-.289-1.021l2.086-3.413c.51-.835,.335-1.914-.417-2.564-.878-.76-1.381-1.854-1.381-3.002,0-1.21,.539-2.342,1.479-3.106,.954-.775,2.158-1.061,3.395-.802,1.519,.317,2.743,1.555,3.044,3.08,.109,.551,.109,1.099,.002,1.629-.11,.542,.24,1.069,.781,1.179,.542,.109,1.069-.24,1.179-.781,.161-.791,.161-1.603,0-2.415-.456-2.303-2.304-4.171-4.598-4.65-1.807-.375-3.654,.062-5.064,1.208-1.41,1.146-2.218,2.844-2.218,4.658,0,1.729,.755,3.375,2.091,4.523Zm14.566,1.693c-1.601-1.968-4.36-2.763-6.774-1.815l-2.113-3.488c.142-.275,.231-.583,.231-.914,0-1.105-.895-2-2-2s-2,.895-2,2,.895,2,2,2c.029,0,.055-.007,.084-.008l2.088,3.446c.5,.825,1.524,1.169,2.435,.822,1.592-.608,3.435-.09,4.499,1.219,.775,.954,1.061,2.158,.803,3.393-.313,1.504-1.534,2.725-3.038,3.038-1.175,.245-2.338-.008-3.271-.708-.441-.332-1.068-.243-1.4,.199-.332,.441-.243,1.068,.199,1.4,1.053,.792,2.295,1.202,3.589,1.202,.426,0,.857-.044,1.29-.134,2.272-.473,4.116-2.317,4.589-4.588,.377-1.809-.064-3.654-1.209-5.062Z"/>
</svg>
